<?xml version="1.0" encoding="UTF-8" standalone="no"?>
<svg
   viewBox="0 0 48 48"
   width="100px"
   height="100px"
   version="1.1"
   id="svg6"
   sodipodi:docname="mongoose.svg"
   inkscape:version="1.2.2 (b0a8486541, 2022-12-01)"
   xmlns:inkscape="http://www.inkscape.org/namespaces/inkscape"
   xmlns:sodipodi="http://sodipodi.sourceforge.net/DTD/sodipodi-0.dtd"
   xmlns="http://www.w3.org/2000/svg"
   xmlns:svg="http://www.w3.org/2000/svg">
  <defs
     id="defs10" />
  <sodipodi:namedview
     id="namedview8"
     pagecolor="#ffffff"
     bordercolor="#000000"
     borderopacity="0.25"
     inkscape:showpageshadow="2"
     inkscape:pageopacity="0.0"
     inkscape:pagecheckerboard="0"
     inkscape:deskcolor="#d1d1d1"
     showgrid="false"
     inkscape:zoom="8.39"
     inkscape:cx="49.940405"
     inkscape:cy="49.940405"
     inkscape:window-width="1920"
     inkscape:window-height="1011"
     inkscape:window-x="0"
     inkscape:window-y="0"
     inkscape:window-maximized="1"
     inkscape:current-layer="svg6" />
  <polygon
     fill="#b71c1c"
     points="18.001,29.994 18.001,35 21.995,34.995 21.995,29.999 20.001,32.004"
     id="polygon2" />
  <path
     fill="#b71c1c"
     d="M46.586,21.441c-0.177-0.221-0.84-0.354-0.84-0.354l-0.796,1.592l0.088-1.769 c0,0-4.821-1.946-8.668-2.875s-6.58-1.291-8.048-1.326c-1.062-0.026-3.097,0.088-3.097,0.088l1.725,1.636 c0,0-2.167-0.885-2.963-1.194s-2.034-0.31-2.654-0.354c-0.619-0.044-1.15,0.221-1.15,0.221s-0.575,0.442,0.752,3.405 c1.088,2.43,3.719,3.965,4.632,4.44c-5.917-1.284-6.578-7.005-6.578-7.005s-3.603-0.037-8.757,1.769 c-5.824,2.041-9.288,5.971-9.288,5.971s4.6-1.548,8.492-0.487s5.497,3.788,5.497,3.788l0.107-3.007h2.936l2.251,2.713l1.758-2.677 h2.971c0,0,0.015,0,0.036-0.001v5.979c0,0,2.014-1.665,3.372-2.328c1.813-0.885,6.015-0.619,6.015-0.619s-0.067-0.47-0.315-0.967 c-0.352-0.704,0.573-0.935,0.573-0.935s8.278-1.813,9.206-1.99c0.929-0.177,1.592-0.575,1.813-0.796 c0.221-0.221,0.84-1.769,0.973-1.946C46.763,22.237,46.763,21.662,46.586,21.441z M21.2,18.389c0.221-0.354,0.885-0.487,1.902,0 c1.2,0.574,2.654,2.477,2.654,2.477l-1.238-0.575l0.619,1.106l-1.106-0.619l0.973,1.415l-0.663-0.177l0.885,1.459 C21.377,21.264,20.979,18.743,21.2,18.389z M37.918,20.556l-0.663,0.486c0,0-2.654,0.354-3.361,0.31 c-0.708-0.044-1.15-1.106-1.15-1.106l-1.459-0.885L37.918,20.556z M32.92,26.748c-0.487,0.398-0.044,1.371-0.044,1.371 c-0.663-0.486-1.46-1.415-0.752-1.946c0.708-0.531,5.882-1.194,5.882-1.194S33.406,26.35,32.92,26.748z"
     id="path4" />
  <path
     style="fill:#000000;stroke-width:0.11919"
     d="m 52.145411,60.307007 v -6.194969 l -3.188319,4.77e-4 -3.18832,4.77e-4 -1.787842,2.73847 c -0.983314,1.506159 -1.814661,2.73909 -1.847438,2.739847 -0.03278,7.15e-4 -1.078665,-1.230943 -2.324195,-2.737111 l -2.264601,-2.738488 -3.111058,-0.0019 -3.11106,-0.0019 -0.07655,0.983314 c -0.0421,0.540822 -0.08314,1.546483 -0.09119,2.234803 -0.0081,0.688319 -0.0486,1.588168 -0.09011,1.999664 l -0.07546,0.748173 -0.633961,-0.832912 C 28.813432,57.219306 26.044179,55.066511 23.361139,53.807848 20.150658,52.301754 17.352674,51.71942 13.329492,51.720001 10.035034,51.720476 7.2413308,52.077321 3.8294013,52.933464 3.0511887,53.128738 2.3926995,53.266738 2.3660921,53.240132 2.2967561,53.170792 4.3379099,51.247201 5.5610988,50.22914 10.255299,46.322156 15.221404,43.418252 20.696179,41.378982 26.1475,39.348449 32.948385,37.84099 38.271839,37.483226 l 1.203907,-0.08091 0.148626,0.755453 c 0.08174,0.415499 0.331511,1.313749 0.555035,1.996111 1.95031,5.953767 6.232854,10.061189 12.138121,11.641769 1.243792,0.332908 1.193614,0.251616 -0.434515,-0.703923 -3.602726,-2.114422 -6.500875,-4.997955 -7.966639,-7.926462 -1.210106,-2.417717 -2.055953,-5.185962 -1.997104,-6.536011 l 0.03543,-0.812828 0.476758,-0.238379 c 0.427221,-0.21361 0.699677,-0.237049 2.622169,-0.225578 3.103117,0.01851 3.748371,0.158939 7.307504,1.590306 1.618537,0.650923 3.143927,1.267897 3.389755,1.371055 0.245828,0.103158 0.444869,0.146613 0.442311,0.09657 -0.0026,-0.05005 -0.775756,-0.815068 -1.71822,-1.700051 -0.942464,-0.884982 -1.697831,-1.624841 -1.678593,-1.644131 0.109869,-0.110168 5.760272,-0.207869 7.215527,-0.124765 5.376543,0.307035 14.163891,2.066318 21.334922,4.271388 3.427867,1.054058 11.243213,3.819431 12.196998,4.315772 0.202581,0.10542 0.213159,0.249388 0.145596,1.981439 l -0.07286,1.867759 0.851237,-1.668653 c 0.46818,-0.91776 0.862875,-1.681906 0.877101,-1.698103 0.04916,-0.05597 1.199494,0.366706 1.465667,0.538546 0.313597,0.202456 0.558185,0.996287 0.459302,1.490702 -0.06864,0.343185 -0.209363,0.659236 -1.4598,3.278509 -0.6155,1.289279 -0.672196,1.364487 -1.367248,1.813722 -0.398817,0.257768 -1.027937,0.582601 -1.398044,0.721852 -0.370107,0.139252 -3.247416,0.807414 -6.394019,1.484806 -11.729267,2.525042 -14.671658,3.189266 -15.105528,3.409967 -0.920359,0.468169 -0.970212,0.846934 -0.343164,2.607198 l 0.360897,1.01311 -3.659917,0.07251 c -5.706709,0.113056 -7.720241,0.524772 -10.274934,2.100965 -1.182695,0.729698 -2.936781,1.968865 -4.342899,3.068024 l -1.139819,0.890993 z m 16.256408,-2.172323 c -0.256757,-0.717895 -0.260904,-1.654777 -0.009,-2.039192 0.112782,-0.172127 0.458861,-0.44131 0.769065,-0.598184 0.820472,-0.414928 3.483686,-1.349366 6.821455,-2.393438 1.606079,-0.50239 2.994864,-0.938237 3.086189,-0.968551 1.163727,-0.386267 -5.040313,0.526275 -8.651052,1.272469 -3.239999,0.669577 -4.08949,1.117925 -4.08949,2.158368 0,0.273264 0.117477,0.739516 0.26106,1.036118 0.255251,0.52728 1.646749,2.038966 1.876857,2.038966 0.06515,0 0.03659,-0.222334 -0.06506,-0.506556 z M 51.787843,47.49702 c -0.46487,-0.769734 -0.826344,-1.418392 -0.803273,-1.441462 0.02307,-0.02307 0.243258,0.01364 0.489308,0.08158 0.24605,0.06794 0.499555,0.106126 0.563344,0.08486 0.06379,-0.02126 -0.261221,-0.583154 -0.722242,-1.248646 -0.461023,-0.665493 -0.838222,-1.245245 -0.838222,-1.288338 0,-0.04309 0.405603,0.145547 0.901342,0.4192 0.495738,0.273654 0.92873,0.470164 0.962204,0.436689 0.03347,-0.03347 -0.184407,-0.493114 -0.484179,-1.021421 -0.299772,-0.528307 -0.54504,-0.985576 -0.54504,-1.016152 0,-0.03058 0.515348,0.185231 1.145218,0.47957 0.629871,0.29434 1.169471,0.510913 1.199111,0.481272 0.09681,-0.09681 -1.710533,-2.162826 -2.766159,-3.162064 -1.711913,-1.620467 -3.07533,-2.404464 -4.611834,-2.651911 -0.813688,-0.13104 -1.556749,0.02095 -1.96872,0.40269 -0.511439,0.47391 -0.29956,1.948995 0.509061,3.544053 1.22753,2.421384 3.582354,4.799156 6.661528,6.726445 0.584169,0.365639 1.082746,0.644177 1.107948,0.618974 0.0252,-0.0252 -0.334525,-0.675606 -0.799395,-1.445339 z m 20.821875,-3.048381 c 0.839387,-0.07053 2.311802,-0.22417 3.272033,-0.341419 1.731039,-0.211369 1.752156,-0.217587 2.485176,-0.731771 0.616856,-0.4327 0.70277,-0.533098 0.518727,-0.606179 -0.314306,-0.124805 -13.652433,-2.499908 -13.710866,-2.441476 -0.02663,0.02663 0.622109,0.459794 1.441647,0.962583 1.334315,0.818607 1.53329,0.985201 1.903563,1.593776 0.494822,0.813282 0.940619,1.258741 1.50384,1.5027 0.507765,0.219938 0.660335,0.223583 2.58588,0.06179 z"
     id="path131"
     transform="scale(0.48)" />
  <path
     style="fill:#000000;stroke-width:0.11919"
     d="m 37.604291,67.775742 v -5.049049 l 2.022697,2.039514 2.022697,2.039514 2.029746,-2.024907 2.029747,-2.024907 v 5.034442 5.034442 h -4.052444 -4.052443 z"
     id="path133"
     transform="scale(0.48)" />
</svg>
