<?xml version="1.0" encoding="UTF-8" standalone="no"?>
<!-- Created with Inkscape (http://www.inkscape.org/) -->

<svg
   width="560"
   height="560"
   viewBox="0 0 49.887767 49.887767"
   version="1.1"
   id="svg261"
   sodipodi:docname="mongodb.svg"
   inkscape:version="1.2.2 (b0a8486541, 2022-12-01)"
   xmlns:inkscape="http://www.inkscape.org/namespaces/inkscape"
   xmlns:sodipodi="http://sodipodi.sourceforge.net/DTD/sodipodi-0.dtd"
   xmlns="http://www.w3.org/2000/svg"
   xmlns:svg="http://www.w3.org/2000/svg">
  <sodipodi:namedview
     id="namedview263"
     pagecolor="#ffffff"
     bordercolor="#000000"
     borderopacity="0.25"
     inkscape:showpageshadow="2"
     inkscape:pageopacity="0.0"
     inkscape:pagecheckerboard="0"
     inkscape:deskcolor="#d1d1d1"
     inkscape:document-units="mm"
     showgrid="false"
     inkscape:zoom="2.09"
     inkscape:cx="71.052632"
     inkscape:cy="250.7177"
     inkscape:window-width="1920"
     inkscape:window-height="1011"
     inkscape:window-x="0"
     inkscape:window-y="0"
     inkscape:window-maximized="1"
     inkscape:current-layer="layer1" />
  <defs
     id="defs258" />
  <g
     inkscape:label="Layer 1"
     inkscape:groupmode="layer"
     id="layer1">
    <g
       id="g6"
       transform="matrix(0.0890853,0,0,0.0890853,13.540965,0.52266607)"
       style="fill:#000000">
      <path
         d="M 175.62198,61.107971 C 152.61145,33.806674 132.79665,6.0788184 128.74865,0.31993765 c -0.42624,-0.42658353 -1.0656,-0.42658353 -1.49162,0 C 123.20882,6.0788184 103.39423,33.806674 80.383491,61.107971 -117.12387,313.00438 111.49065,482.99881 111.49065,482.99881 l 1.91744,1.28 c 1.70431,26.23357 5.96564,63.98712 5.96564,63.98712 h 8.52244 8.52244 c 0,0 4.26133,-37.54022 5.96586,-63.98712 l 1.91744,-1.49333 c 0.21291,0.21333 228.82828,-169.7811 31.32007,-421.677509 z M 127.89617,479.15882 c 0,0 -10.22676,-8.74452 -12.99667,-13.22238 v -0.4288 l 12.35753,-274.29169 c 0,-0.85333 1.2785,-0.85333 1.2785,0 l 12.35732,274.29169 v 0.4288 c -2.7697,4.47786 -12.99668,13.22238 -12.99668,13.22238 z"
         fill="#01ec64"
         id="path4"
         style="fill:#000000" />
    </g>
    <path
       style="fill:none;fill-opacity:1;stroke-width:0.549451"
       d="m 270.4008,542.44505 c -1.67203,-15.84535 -3.77733,-38.77414 -4.23714,-46.14652 l -0.38507,-6.174 -3.07223,-2.31955 c -10.33783,-7.80514 -30.4036,-27.66518 -42.0826,-41.65113 -38.95755,-46.65287 -61.12255,-96.72293 -67.13163,-151.64836 -1.15074,-10.51823 -1.31573,-36.03401 -0.30021,-46.42857 2.71323,-27.77178 9.57188,-55.14457 20.59913,-82.21085 14.33281,-35.17973 36.836,-71.894938 65.29072,-106.525411 9.99535,-12.164716 24.01702,-30.320464 33.44478,-43.305477 5.9628,-8.2126506 7.43467,-9.9307223 8.00213,-9.3406588 0.38245,0.3976826 3.83773,5.0499818 7.6784,10.3384438 8.73647,12.029831 24.60451,32.550584 32.71517,42.307692 22.04113,26.515456 42.69917,58.282481 56.54656,86.954801 35.966,74.471 39.81226,147.98359 11.43426,218.5397 -8.81347,21.91287 -22.75919,46.36652 -38.07172,66.75825 -15.35606,20.44969 -35.95634,42.04341 -52.78988,55.33563 l -3.8816,3.06503 -0.94966,12.00846 c -0.5223,6.60465 -1.80442,20.49082 -2.84916,30.85815 -1.04473,10.36734 -1.89951,19.33025 -1.89951,19.91758 0,1.01115 -0.4479,1.06789 -8.42884,1.06789 h -8.42884 z m 15.04949,-62.09015 c 2.72567,-2.64299 5.59129,-5.67083 6.36803,-6.72853 l 1.41226,-1.92307 -6.19819,-136.26374 c -3.409,-74.94505 -6.2128,-136.94368 -6.23067,-137.77472 -0.0207,-0.96237 -0.33174,-1.51099 -0.85667,-1.51099 -0.45329,0 -0.83559,0.0618 -0.84955,0.13736 -0.014,0.0755 -2.8349,62.07417 -6.26874,137.77472 -5.67636,125.13765 -6.16673,137.76211 -5.39956,139.01099 1.11868,1.82112 11.71646,12.08854 12.47452,12.08567 0.32603,-0.001 2.82288,-2.16469 5.54857,-4.80769 z"
       id="path3414"
       transform="scale(0.0890853)" />
  </g>
</svg>
