<?xml version="1.0" encoding="UTF-8" standalone="no"?>
<svg
   width="64"
   height="64"
   viewBox="0 0 25.6 25.6"
   version="1.1"
   id="svg4"
   sodipodi:docname="mysql.svg"
   inkscape:version="1.2.2 (b0a8486541, 2022-12-01)"
   xmlns:inkscape="http://www.inkscape.org/namespaces/inkscape"
   xmlns:sodipodi="http://sodipodi.sourceforge.net/DTD/sodipodi-0.dtd"
   xmlns="http://www.w3.org/2000/svg"
   xmlns:svg="http://www.w3.org/2000/svg">
  <defs
     id="defs8" />
  <sodipodi:namedview
     id="namedview6"
     pagecolor="#ffffff"
     bordercolor="#000000"
     borderopacity="0.25"
     inkscape:showpageshadow="2"
     inkscape:pageopacity="0.0"
     inkscape:pagecheckerboard="0"
     inkscape:deskcolor="#d1d1d1"
     showgrid="false"
     inkscape:zoom="13.109375"
     inkscape:cx="31.961859"
     inkscape:cy="32.038141"
     inkscape:window-width="1920"
     inkscape:window-height="1011"
     inkscape:window-x="0"
     inkscape:window-y="0"
     inkscape:window-maximized="1"
     inkscape:current-layer="svg4" />
  <path
     d="M179.076 94.886c-3.568-.1-6.336.268-8.656 1.25-.668.27-1.74.27-1.828 1.116.357.355.4.936.713 1.428.535.893 1.473 2.096 2.32 2.72l2.855 2.053c1.74 1.07 3.703 1.695 5.398 2.766.982.625 1.963 1.428 2.945 2.098.5.357.803.938 1.428 1.16v-.135c-.312-.4-.402-.98-.713-1.428l-1.34-1.293c-1.293-1.74-2.9-3.258-4.64-4.506-1.428-.982-4.55-2.32-5.13-3.97l-.088-.1c.98-.1 2.14-.447 3.078-.715 1.518-.4 2.9-.312 4.46-.713l2.143-.625v-.4c-.803-.803-1.383-1.874-2.23-2.632-2.275-1.963-4.775-3.882-7.363-5.488-1.383-.892-3.168-1.473-4.64-2.23-.537-.268-1.428-.402-1.74-.848-.805-.98-1.25-2.275-1.83-3.436l-3.658-7.763c-.803-1.74-1.295-3.48-2.275-5.086-4.596-7.585-9.594-12.18-17.268-16.687-1.65-.937-3.613-1.34-5.7-1.83l-3.346-.18c-.715-.312-1.428-1.16-2.053-1.562-2.543-1.606-9.102-5.086-10.977-.5-1.205 2.9 1.785 5.755 2.8 7.228.76 1.026 1.74 2.186 2.277 3.346.3.758.4 1.562.713 2.365.713 1.963 1.383 4.15 2.32 5.98.5.937 1.025 1.92 1.65 2.767.357.5.982.714 1.115 1.517-.625.893-.668 2.23-1.025 3.347-1.607 5.042-.982 11.288 1.293 15 .715 1.115 2.4 3.57 4.686 2.632 2.008-.803 1.56-3.346 2.14-5.577.135-.535.045-.892.312-1.25v.1l1.83 3.703c1.383 2.186 3.793 4.462 5.8 5.98 1.07.803 1.918 2.187 3.256 2.677v-.135h-.088c-.268-.4-.67-.58-1.027-.892-.803-.803-1.695-1.785-2.32-2.677-1.873-2.498-3.523-5.265-4.996-8.12-.715-1.383-1.34-2.9-1.918-4.283-.27-.536-.27-1.34-.715-1.606-.67.98-1.65 1.83-2.143 3.034-.848 1.918-.936 4.283-1.248 6.737-.18.045-.1 0-.18.1-1.426-.356-1.918-1.83-2.453-3.078-1.338-3.168-1.562-8.254-.402-11.913.312-.937 1.652-3.882 1.117-4.774-.27-.848-1.16-1.338-1.652-2.008-.58-.848-1.203-1.918-1.605-2.855-1.07-2.5-1.605-5.265-2.766-7.764-.537-1.16-1.473-2.365-2.232-3.435-.848-1.205-1.783-2.053-2.453-3.48-.223-.5-.535-1.294-.178-1.83.088-.357.268-.5.623-.58.58-.5 2.232.134 2.812.4 1.65.67 3.033 1.294 4.416 2.23.625.446 1.295 1.294 2.098 1.518h.938c1.428.312 3.033.1 4.37.5 2.365.76 4.506 1.874 6.426 3.08 5.844 3.703 10.664 8.968 13.92 15.26.535 1.026.758 1.963 1.25 3.034.938 2.187 2.098 4.417 3.033 6.56.938 2.097 1.83 4.24 3.168 5.98.67.937 3.346 1.427 4.55 1.918.893.4 2.275.76 3.08 1.25 1.516.937 3.033 2.008 4.46 3.034.713.534 2.945 1.65 3.078 2.54zm-45.5-38.772a7.09 7.09 0 0 0-1.828.223v.1h.088c.357.714.982 1.205 1.428 1.83l1.027 2.142.088-.1c.625-.446.938-1.16.938-2.23-.268-.312-.312-.625-.535-.937-.268-.446-.848-.67-1.206-1.026z"
     transform="matrix(.390229 0 0 .38781 -46.300037 -16.856717)"
     fill-rule="evenodd"
     fill="#00678c"
     id="path2" />
  <path
     style="fill:#000000;stroke-width:0.0762813"
     d="M 63.2107,63.363287 C 62.57768,62.759369 59.935309,60.868355 59.117677,60.434113 58.782216,60.25595 57.825485,59.78474 56.991609,59.386978 56.157734,58.989217 55.26449,58.547806 55.006625,58.406066 54.14677,57.93343 51.347379,55.872207 50.879109,55.366928 50.261213,54.700199 49.596868,53.789261 49.360986,53.285305 49.252253,53.053 49.075578,52.675421 48.968373,52.446242 c -0.331028,-0.707672 -0.267925,-0.756544 1.911246,-1.480197 2.397171,-0.796048 3.531694,-0.98702 6.264151,-1.054435 1.822907,-0.04498 1.839458,-0.04687 1.798657,-0.206153 -0.0695,-0.271314 -0.860811,-0.974233 -1.683768,-1.495683 -0.430387,-0.272706 -1.26939,-0.83645 -1.864452,-1.252764 C 53.74148,45.800736 51.846762,44.560214 51.337306,44.30085 50.709292,43.981128 48.710418,43.244997 47.106124,42.74262 45.578488,42.264249 44.820582,41.936113 44.409355,41.57505 44.055818,41.264641 43.28627,40.109701 42.725063,39.04726 42.494912,38.611553 41.862154,37.276758 41.318935,36.081049 40.775715,34.88534 39.963374,33.134684 39.513731,32.190703 38.438064,29.932442 38.088952,29.148014 37.633998,27.967072 36.654319,25.424085 34.759363,22.344401 32.417903,19.489869 28.594893,14.82914 23.296352,10.857227 18.343848,8.9396201 16.805025,8.3437885 16.480309,8.292968 12.47199,8.0206309 11.620542,7.9627809 11.410569,7.8607481 10.434857,7.0307186 10.090595,6.7378586 9.5142209,6.3202349 9.1540245,6.1026659 7.9548735,5.3783444 5.3013734,4.1977705 4.2747958,3.9318386 2.5883947,3.4949813 1.5961938,4.3792488 2.0959572,5.8736591 2.2972533,6.4755819 2.7912157,7.3291919 3.3540054,8.0476758 6.5482499,12.125599 7.0365245,13.01573 8.3124657,17.087008 c 1.1729377,3.742617 2.0422323,5.495031 3.4492473,6.953354 0.776326,0.804635 1.089696,1.341173 1.090939,1.867854 0.0011,0.458676 -0.321115,1.626935 -0.791709,2.870672 -0.856979,2.264921 -1.12029,3.746416 -1.119997,6.301562 3.82e-4,3.126406 0.47992,5.319339 1.68924,7.724555 0.366154,0.728246 0.809446,1.232185 1.304621,1.483109 0.385151,0.195171 0.502449,0.217244 0.651416,0.122586 0.05763,-0.03662 0.167714,-0.708077 0.290575,-1.772372 0.404305,-3.502304 0.823449,-4.863468 1.91369,-6.214694 0.236657,-0.293308 0.585912,-0.730666 0.77612,-0.971906 0.190209,-0.241239 0.373861,-0.438617 0.408117,-0.438617 0.10866,0 0.278389,0.328231 0.413892,0.8004 0.11767,0.410031 0.918127,2.333325 1.553006,3.731473 0.385653,0.849296 1.571797,3.030091 2.420152,4.449592 2.010784,3.364514 4.1859,6.240903 5.530825,7.313997 0.522115,0.416586 0.661849,0.562702 0.538127,0.562702 -0.14809,0 -0.776458,-0.513992 -1.579714,-1.292174 -0.461502,-0.447095 -1.216686,-1.113798 -1.678188,-1.481561 -1.877525,-1.496168 -3.502461,-3.110843 -4.628461,-4.599234 -0.305213,-0.403442 -0.768236,-1.236324 -1.421069,-2.556207 -0.532592,-1.076781 -1.002162,-1.94942 -1.043489,-1.939197 -0.04133,0.01022 -0.09878,0.118876 -0.127681,0.241454 -0.157731,0.669065 -0.384087,1.963347 -0.522865,2.989691 -0.252391,1.866558 -0.565939,2.621823 -1.275669,3.072791 -1.210725,0.769303 -2.455788,0.538159 -3.681774,-0.683515 -1.892127,-1.88547 -3.0541491,-4.93509 -3.3598448,-8.817602 -0.1790986,-2.274658 0.061326,-4.581826 0.7273436,-6.979738 0.1456606,-0.524434 0.3676562,-1.381747 0.4933232,-1.90514 0.125667,-0.523394 0.314686,-1.117774 0.420043,-1.320845 0.182523,-0.351805 0.186055,-0.382477 0.07488,-0.650283 -0.06417,-0.154584 -0.316663,-0.487021 -0.561092,-0.73875 C 9.5526949,24.475875 8.6376666,22.975609 7.8305564,21.217078 7.223757,19.894983 6.088916,16.722506 5.4240758,14.4897 5.1446686,13.551336 4.4729903,12.53931 2.1982381,9.6292928 0.94403471,8.0248305 0.34136572,6.9246934 0.13062003,5.8549767 -0.03131138,5.0330347 0.06798241,4.3205542 0.45304308,3.5414368 1.2468102,1.9353583 2.7414146,1.3322724 4.9673619,1.71987 c 2.0147044,0.3508144 5.1979251,1.8528208 6.7799561,3.1991302 1.033368,0.8793964 0.991543,0.8652281 2.838966,0.9617122 1.454932,0.075986 1.70144,0.1105547 2.996553,0.4202203 2.529541,0.6048216 3.42241,0.9606975 5.33969,2.1282714 2.476125,1.5078959 5.057111,3.3444939 6.865316,4.8852709 1.177393,1.003261 3.60065,3.443151 4.545209,4.576409 1.923626,2.307913 3.908136,5.198867 4.827228,7.03211 0.215069,0.428981 0.559771,1.201329 0.766005,1.716329 0.609707,1.522537 0.806661,1.955573 2.941215,6.466756 2.741296,5.793476 2.654884,5.617436 3.029072,6.170876 0.412406,0.609969 0.54819,0.71032 1.398194,1.033337 1.239858,0.471168 4.221674,1.847581 4.978573,2.298121 2.029046,1.207775 5.165477,3.514013 7.136581,5.247573 0.756039,0.664927 2.358926,2.659994 2.325308,2.894244 -0.02049,0.142782 -0.176697,0.208964 -1.16448,0.493376 -1.151667,0.3316 -1.76612,0.44525 -3.607758,0.667304 -0.571107,0.06886 -1.496925,0.253184 -2.128374,0.423744 -0.614672,0.166028 -1.412737,0.35843 -1.773478,0.427559 -0.360742,0.06913 -0.667879,0.134917 -0.682528,0.146195 -0.01465,0.01128 0.06934,0.196835 0.186634,0.412348 0.412845,0.758535 1.332243,1.484282 3.418175,2.698217 0.625445,0.363986 1.36036,0.821055 1.633142,1.015709 1.360952,0.971155 2.789603,2.313181 3.882494,3.647082 0.343744,0.419547 0.888457,1.000734 1.210475,1.291527 0.502811,0.454054 0.627184,0.619395 0.880768,1.170885 0.162404,0.353194 0.29528,0.655916 0.29528,0.672716 0,0.122256 -0.241187,-0.03985 -0.674878,-0.453605 z"
     id="path183"
     transform="scale(0.4)" />
  <path
     style="fill:#000000;stroke-width:0.0762813"
     d=""
     id="path185"
     transform="scale(0.4)" />
  <path
     style="fill:#000000;stroke-width:0.0762813"
     d="m 14.766632,15.301659 c -0.375098,-0.800615 -0.581005,-1.134173 -0.974778,-1.579081 -0.633457,-0.715717 -0.907274,-1.121662 -0.81714,-1.211439 0.03816,-0.03801 0.385152,-0.109543 0.771087,-0.158961 l 0.701701,-0.08985 0.480659,0.344487 c 0.602779,0.432009 0.741723,0.587863 1.052719,1.180835 0.225641,0.430227 0.245083,0.517925 0.19995,0.901933 -0.0584,0.496859 -0.205144,0.878686 -0.472346,1.229005 -0.395455,0.518469 -0.416304,0.504812 -0.941852,-0.616929 z"
     id="path187"
     transform="scale(0.4)" />
</svg>
