<?xml version="1.0" encoding="UTF-8" standalone="no"?>
<svg
   viewBox="0 0 128 128"
   version="1.1"
   id="svg34"
   sodipodi:docname="sequelize.svg"
   inkscape:version="1.2.2 (b0a8486541, 2022-12-01)"
   xmlns:inkscape="http://www.inkscape.org/namespaces/inkscape"
   xmlns:sodipodi="http://sodipodi.sourceforge.net/DTD/sodipodi-0.dtd"
   xmlns="http://www.w3.org/2000/svg"
   xmlns:svg="http://www.w3.org/2000/svg">
  <defs
     id="defs38" />
  <sodipodi:namedview
     id="namedview36"
     pagecolor="#ffffff"
     bordercolor="#000000"
     borderopacity="0.25"
     inkscape:showpageshadow="2"
     inkscape:pageopacity="0.0"
     inkscape:pagecheckerboard="0"
     inkscape:deskcolor="#d1d1d1"
     showgrid="false"
     inkscape:zoom="6.5546875"
     inkscape:cx="64.076281"
     inkscape:cy="63.923719"
     inkscape:window-width="1920"
     inkscape:window-height="1011"
     inkscape:window-x="0"
     inkscape:window-y="0"
     inkscape:window-maximized="1"
     inkscape:current-layer="svg34" />
  <g
     fill="#2f406a"
     id="g32">
    <path
       d="m101.84 41.72v44.28l-37.66 22.32-.34.31v16.57l.34.32 53-30.64v-61.76l-.5-.12-15 8.36.08.36"
       id="path2" />
    <path
       d="m26.4 86.4 37.78 21.92v17.2l-53.4-30.76v-61.52l.55-.08 14.91 8.67.16.5z"
       id="path4" />
    <path
       d="m26.4 42.32-15.62-9.08 53.28-30.76 53.16 30.64-15.38 8.6-37.78-21.56z"
       id="path6" />
    <path
       d="m30.06 84v-18.1l.41.24 14.53 8.45.12.07v17.53z"
       id="path8" />
    <path
       d="m83.27 92.6v-17.6l.1-.05 14.27-8.35.44-.26v17.5z"
       id="path10" />
    <path
       d="m64.85 103.46-.41-.42v-17.04l.51-.18 14.27-8.32.44-.25v17.45l-14.8 8.76"
       id="path12" />
    <path
       d="m49.8 95.23v-18.06l.41.23 14.51 8.45.12 17.61z"
       id="path14" />
    <path
       d="m63.29 22.94-14.81 8.76 15.05 8.76 14.8-8.64z"
       id="path16" />
    <path
       d="m30.06 60.36v-17.81h.41l14.53 8.45.12.33v17.26z"
       id="path18" />
    <path
       d="m44.86 33.8-14.8 8.76 15.05 8.76 14.8-8.64z"
       id="path20" />
    <path
       d="m83.27 69v-17.3l.1-.41 14.27-8.29.44.1v17.11z"
       id="path22" />
    <path
       d="m83 34.21-14.78 8.79 15.05 8.76 14.8-8.64z"
       id="path24" />
    <path
       d="m64.85 79.85-.41-.42v-16.64l.41-.21.1-.41 14.27-8.32.44.1v17.14l-14.8 8.76"
       id="path26" />
    <path
       d="m49.8 71.63v-17.81h.41l14.51 8.45.12.33v17.25z"
       id="path28" />
    <path
       d="m64.6 45.06-14.8 8.76 15.05 8.76 14.8-8.64z"
       id="path30" />
  </g>
  <path
     style="fill:#000000;stroke-width:0.152563"
     d="M 37.530393,110.07682 10.984505,94.770333 V 63.999396 33.228458 L 37.511579,17.913952 C 52.101471,9.4909734 64.081447,2.6212534 64.133749,2.6479074 c 0.0523,0.026654 11.989255,6.8995931 26.526561,15.2731986 l 26.43147,15.224735 V 63.989363 94.832886 L 90.646083,110.11966 c -14.545129,8.40773 -26.473616,15.28157 -26.507747,15.27521 -0.03413,-0.006 -12.007704,-6.89948 -26.607943,-15.31805 z M 101.95045,63.883242 101.9891,41.699457 83.202847,30.975484 C 72.870409,25.077299 64.305699,20.223908 64.170158,20.190174 64.034616,20.156438 55.47938,25.100718 45.158522,31.177462 L 26.393325,42.226088 26.354675,64.338948 26.316023,86.45181 45.250929,97.438564 64.185835,108.42532 83.048818,97.246172 101.9118,86.067028 Z"
     id="path213" />
  <path
     style="fill:#000000;stroke-width:0.152563"
     d="m 37.499155,64.340511 -7.354241,-4.002013 -0.0069,-8.855497 -0.0069,-8.855497 7.340049,-4.341165 c 4.037026,-2.387642 7.393905,-4.326378 7.45973,-4.308304 0.06583,0.01807 3.302017,1.910883 7.191537,4.206241 3.88952,2.295359 7.199402,4.244058 7.355292,4.330443 0.237894,0.131827 -0.889767,0.841608 -7.017879,4.417256 l -7.301315,4.260192 -0.03941,8.577933 c -0.02168,4.717864 -0.09033,8.576693 -0.152562,8.575178 -0.06223,-0.0015 -3.422561,-1.803662 -7.467394,-4.004767 z"
     id="path215" />
  <path
     style="fill:#000000;stroke-width:0.152563"
     d="m 56.153902,36.077277 c -3.937761,-2.301863 -7.21467,-4.240309 -7.282019,-4.307658 -0.120424,-0.120425 14.112617,-8.631962 14.430986,-8.62991 0.110789,7.14e-4 13.99032,8.099085 14.838283,8.65778 0.07913,0.05213 -14.361858,8.407061 -14.57744,8.433872 -0.137634,0.01712 -3.472048,-1.852221 -7.40981,-4.154084 z"
     id="path217" />
  <path
     style="fill:#000000;stroke-width:0.152563"
     d="m 83.338578,60.24181 -0.03941,-8.570433 -7.126018,-4.149023 c -3.919309,-2.281962 -7.262632,-4.24509 -7.429605,-4.362506 -0.281249,-0.197774 0.04665,-0.420691 4.456172,-3.029436 2.617868,-1.548774 5.897699,-3.489626 7.288513,-4.313005 l 2.528752,-1.497051 7.464096,4.412421 7.464097,4.412421 v 8.518765 8.518764 l -6.865316,4.089483 c -3.775924,2.249215 -7.05354,4.190856 -7.283591,4.314756 l -0.418276,0.225276 z"
     id="path219" />
  <path
     style="fill:#000000;stroke-width:0.152563"
     d="m 57.363528,75.666455 -7.475566,-4.091673 -0.03936,-8.829507 -0.03936,-8.829507 7.400802,-4.374999 7.400802,-4.374999 7.437124,4.389969 7.437125,4.389969 0.0394,8.550547 0.0394,8.550546 -7.057277,4.170754 c -3.881503,2.293914 -7.194586,4.253964 -7.362405,4.355665 -0.268963,0.162995 -1.191084,-0.300011 -7.780691,-3.906765 z"
     id="path221" />
  <path
     style="fill:#000000;stroke-width:0.152563"
     d="m 83.41233,83.750019 0.0394,-8.74235 7.246723,-4.237891 7.246722,-4.237891 0.03943,8.567609 c 0.03097,6.729627 -0.0018,8.605762 -0.152563,8.745453 -0.105593,0.09781 -3.315706,2.015849 -7.133584,4.262302 -3.817879,2.246452 -7.02798,4.152107 -7.133559,4.234788 -0.153853,0.120486 -0.18414,-1.585177 -0.152562,-8.59202 z"
     id="path223" />
  <path
     style="fill:#000000;stroke-width:0.152563"
     d="m 57.249106,99.208794 -7.437425,-4.079025 v -8.890272 c 0,-4.889649 0.03274,-8.890272 0.07274,-8.890272 0.0969,0 13.931307,8.055622 14.423027,8.398367 0.473473,0.330025 -0.417919,0.789652 8.197007,-4.226613 3.796402,-2.210555 6.937284,-4.019191 6.979738,-4.019191 0.04245,0 0.07675,3.86174 0.07621,8.581645 l -9.15e-4,8.581644 -7.191673,4.253703 c -3.95542,2.33953 -7.301822,4.27965 -7.436449,4.31137 -0.134687,0.0317 -3.591679,-1.77789 -7.682263,-4.021356 z"
     id="path225" />
  <path
     style="fill:#000000;stroke-width:0.152563"
     d="m 37.619371,88.021212 c -3.978714,-2.172003 -7.291787,-4.006859 -7.362386,-4.077457 -0.0706,-0.0706 -0.110638,-4.117293 -0.08898,-8.992657 l 0.03938,-8.864297 7.399285,4.303551 7.399284,4.30355 0.0394,8.650665 c 0.02167,4.757867 -0.01266,8.645057 -0.07628,8.638204 -0.06363,-0.0069 -3.370994,-1.789554 -7.349708,-3.961559 z"
     id="path227" />
</svg>
