<?xml version="1.0" encoding="UTF-8" standalone="no"?>
<svg
   viewBox="0 0 48 48"
   width="100px"
   height="100px"
   version="1.1"
   id="svg4"
   sodipodi:docname="tailwind.svg"
   inkscape:version="1.2.2 (b0a8486541, 2022-12-01)"
   xmlns:inkscape="http://www.inkscape.org/namespaces/inkscape"
   xmlns:sodipodi="http://sodipodi.sourceforge.net/DTD/sodipodi-0.dtd"
   xmlns="http://www.w3.org/2000/svg"
   xmlns:svg="http://www.w3.org/2000/svg">
  <defs
     id="defs8" />
  <sodipodi:namedview
     id="namedview6"
     pagecolor="#ffffff"
     bordercolor="#000000"
     borderopacity="0.25"
     inkscape:showpageshadow="2"
     inkscape:pageopacity="0.0"
     inkscape:pagecheckerboard="0"
     inkscape:deskcolor="#d1d1d1"
     showgrid="false"
     inkscape:zoom="9.64"
     inkscape:cx="51.711618"
     inkscape:cy="50"
     inkscape:window-width="1920"
     inkscape:window-height="1011"
     inkscape:window-x="0"
     inkscape:window-y="0"
     inkscape:window-maximized="1"
     inkscape:current-layer="svg4" />
  <path
     fill="#00acc1"
     d="M24,9.604c-6.4,0-10.4,3.199-12,9.597c2.4-3.199,5.2-4.398,8.4-3.599 c1.826,0.456,3.131,1.781,4.576,3.247C27.328,21.236,30.051,24,36,24c6.4,0,10.4-3.199,12-9.598c-2.4,3.199-5.2,4.399-8.4,3.6 c-1.825-0.456-3.13-1.781-4.575-3.247C32.672,12.367,29.948,9.604,24,9.604L24,9.604z M12,24c-6.4,0-10.4,3.199-12,9.598 c2.4-3.199,5.2-4.399,8.4-3.599c1.825,0.457,3.13,1.781,4.575,3.246c2.353,2.388,5.077,5.152,11.025,5.152 c6.4,0,10.4-3.199,12-9.598c-2.4,3.199-5.2,4.399-8.4,3.599c-1.826-0.456-3.131-1.781-4.576-3.246C20.672,26.764,17.949,24,12,24 L12,24z"
     id="path2"
     style="stroke:none;stroke-opacity:1;fill:#000000" />
</svg>
